<svg xmlns="http://www.w3.org/2000/svg" width="204.388" height="88.973" viewBox="24.562 -26.21 204.388 88.973"><path fill="#968172" d="M143.193-26.21h-32.87c-1.198 0-2.165 1.03-2.165 2.306v28.47c0 1.277.967 2.308 2.165 2.308h32.87c1.192 0 2.16-1.03 2.16-2.308v-28.47c0-1.274-.968-2.306-2.16-2.306zM128.507-1.39h-4.164v-6.973s.2-1.355-1.228-1.355h-5.12v4.04s.05 3.863-3.11 4.667h-.328s.6-1.083.6-3.388V-16.59c0-1.48-1.327-1.48-1.327-1.48v-.25h4.165v7.375h6.348V-18.32h2.834v15.2c0 1.48 1.33 1.48 1.33 1.48v.25zm11.147.262c-1.354 0-3.257-.454-4.71-2.033l-6.22-6.72s4.737.425 4.737-3.94c0-1.705-.895-3.46-3.18-3.46h-1.65v-1h2.23c3.204 0 5.64 1.178 5.64 4.26 0 2.834-2.18 4.438-3.735 4.743l6.917 7.797-.026.352z"/><g fill="#635D59"><path d="M36.217 49.552c.057 0 .114-.037.114-.133v-.4c0-2.885 0-3.417-.036-4.024-.038-.646-.19-.948-.816-1.082-.152-.038-.475-.057-.74-.057-.208 0-.323-.038-.323-.17s.133-.172.4-.172c1.024 0 2.22.058 2.732.058.456 0 1.65-.058 2.392-.058.265 0 .397.038.397.17s-.114.172-.34.172c-.153 0-.324.02-.552.057-.513.095-.664.418-.702 1.082-.038.607-.038 1.14-.038 4.024v3.342c0 1.746 0 3.246.095 4.062.056.532.17.95.74 1.025.265.036.683.074.967.074.21 0 .304.057.304.152 0 .133-.15.19-.377.19-1.234 0-2.43-.058-2.96-.058-.438 0-1.633.056-2.374.056-.267 0-.4-.057-.4-.19 0-.095.076-.15.304-.15.285 0 .513-.04.684-.077.38-.077.475-.494.55-1.045.095-.797.095-2.297.095-4.043v-1.67c0-.078-.057-.115-.114-.115h-7.25c-.06 0-.116.02-.116.113v1.672c0 1.746 0 3.246.095 4.062.056.532.17.95.74 1.025.265.037.683.075.967.075.21 0 .304.057.304.152 0 .133-.15.19-.38.19-1.232 0-2.43-.058-2.96-.058-.436 0-1.63.056-2.39.056-.248 0-.38-.057-.38-.19 0-.095.075-.15.303-.15.285 0 .513-.04.684-.077.38-.077.475-.494.55-1.045.095-.797.095-2.297.095-4.043v-3.34c0-2.886 0-3.418-.037-4.025-.038-.646-.19-.948-.816-1.082-.153-.038-.476-.057-.74-.057-.21 0-.324-.038-.324-.17s.133-.172.398-.172c1.025 0 2.22.06 2.733.06.456 0 1.652-.06 2.392-.06.265 0 .397.04.397.17s-.114.173-.342.173c-.152 0-.323.02-.55.057-.513.095-.665.418-.702 1.082-.037.607-.037 1.14-.037 4.024v.4c0 .095.057.132.114.132h7.25z"/><path d="M45.69 52.91c-.095 0-.133.04-.17.153l-1.026 2.715c-.19.475-.285.93-.285 1.158 0 .34.17.588.757.588h.285c.228 0 .285.038.285.152 0 .15-.114.19-.322.19-.607 0-1.424-.058-2.012-.058-.21 0-1.253.057-2.24.057-.247 0-.36-.038-.36-.19 0-.113.075-.15.227-.15.17 0 .438-.02.59-.04.872-.113 1.233-.758 1.612-1.707l4.765-11.92c.228-.552.34-.76.53-.76.172 0 .286.17.476.607.456 1.043 3.493 8.788 4.708 11.674.723 1.706 1.274 1.972 1.67 2.066.287.057.57.076.8.076.15 0 .246.02.246.152 0 .15-.17.19-.873.19-.684 0-2.07 0-3.587-.04-.342-.018-.57-.018-.57-.15 0-.114.076-.152.266-.172.134-.037.267-.21.17-.436l-1.518-4.025c-.038-.093-.095-.132-.19-.132H45.69zm3.872-.947c.095 0 .114-.058.095-.114l-1.708-4.69c-.02-.075-.04-.17-.097-.17s-.095.095-.114.17l-1.747 4.67c-.02.075 0 .133.076.133h3.49z"/><path d="M59.28 55.284c.04 1.48.286 1.975.665 2.107.323.115.684.135.987.135.208 0 .322.038.322.152 0 .15-.17.19-.437.19-1.233 0-1.993-.058-2.354-.058-.17 0-1.063.056-2.05.056-.247 0-.417-.02-.417-.19 0-.113.114-.15.304-.15.247 0 .588-.02.854-.096.493-.153.57-.703.588-2.355l.17-11.236c0-.38.057-.648.247-.648.207 0 .377.248.7.59.23.246 3.113 3.34 5.885 6.092 1.29 1.29 3.853 4.025 4.176 4.328h.096l-.19-8.522c-.018-1.157-.19-1.518-.645-1.707-.284-.114-.74-.114-1.005-.114-.228 0-.304-.06-.304-.173 0-.152.21-.17.494-.17.987 0 1.898.057 2.297.057.21 0 .93-.058 1.86-.058.248 0 .438.02.438.17 0 .114-.115.172-.343.172-.19 0-.342 0-.57.056-.53.152-.683.55-.7 1.614l-.21 11.977c0 .418-.076.59-.247.59-.21 0-.437-.21-.646-.418-1.196-1.14-3.625-3.627-5.6-5.582-2.07-2.05-4.176-4.423-4.518-4.784h-.057l.21 7.97zm14.73 2.354c-.303-.133-.36-.227-.36-.645 0-1.045.077-2.184.096-2.486.02-.285.076-.494.228-.494.17 0 .19.17.19.322 0 .247.075.646.17.97.418 1.403 1.538 1.916 2.714 1.916 1.708 0 2.544-1.156 2.544-2.162 0-.93-.285-1.804-1.86-3.037l-.873-.682c-2.09-1.633-2.81-2.962-2.81-4.5 0-2.088 1.745-3.587 4.383-3.587 1.234 0 2.03.19 2.525.324.17.037.265.094.265.227 0 .25-.076.8-.076 2.28 0 .417-.058.57-.21.57-.132 0-.19-.115-.19-.344 0-.17-.094-.76-.493-1.252-.285-.36-.835-.93-2.07-.93-1.404 0-2.258.815-2.258 1.954 0 .873.436 1.538 2.01 2.733l.533.4c2.296 1.727 3.112 3.036 3.112 4.84 0 1.1-.417 2.41-1.784 3.303-.95.607-2.012.778-3.018.778-1.102.003-1.956-.13-2.773-.49zm17.788-8.618c0-2.884 0-3.416-.038-4.023-.038-.646-.19-.948-.816-1.082-.152-.038-.475-.057-.74-.057-.21 0-.323-.038-.323-.17s.135-.172.42-.172c1.005 0 2.2.058 2.6.058.646 0 2.09-.058 2.677-.058 1.196 0 2.467.114 3.493.816.53.36 1.29 1.33 1.29 2.6 0 1.405-.588 2.696-2.505 4.253 1.69 2.126 3 3.815 4.12 4.992 1.06 1.1 1.84 1.234 2.125 1.29.208.038.38.058.53.058s.23.057.23.152c0 .15-.134.19-.36.19h-1.804c-1.063 0-1.538-.097-2.03-.362-.817-.436-1.54-1.328-2.602-2.79-.76-1.044-1.632-2.335-1.88-2.62-.094-.113-.208-.132-.34-.132l-1.652-.038c-.095 0-.152.038-.152.152v.266c0 1.765 0 3.265.095 4.062.057.55.17.968.74 1.044.285.036.703.074.93.074.152 0 .228.057.228.152 0 .133-.133.19-.38.19-1.1 0-2.505-.058-2.79-.058-.36 0-1.557.056-2.316.056-.247 0-.38-.057-.38-.19 0-.095.076-.15.304-.15.287 0 .515-.04.686-.077.38-.077.475-.494.55-1.045.095-.797.095-2.297.095-4.043v-3.34zm2.24 1.5c0 .21.038.285.17.343.4.133.97.19 1.443.19.76 0 1.008-.077 1.35-.323.57-.418 1.12-1.29 1.12-2.848 0-2.695-1.784-3.475-2.904-3.475-.475 0-.816.02-1.006.076-.134.038-.172.114-.172.266v5.77z"/><path d="M107.744 52.91c-.095 0-.133.04-.17.153l-1.026 2.715c-.19.475-.285.93-.285 1.158 0 .34.17.588.76.588h.284c.228 0 .285.038.285.152 0 .15-.114.19-.322.19-.607 0-1.424-.058-2.012-.058-.21 0-1.253.057-2.24.057-.247 0-.36-.038-.36-.19 0-.113.075-.15.227-.15.17 0 .437-.02.588-.04.873-.113 1.234-.758 1.613-1.707l4.765-11.92c.23-.552.343-.76.533-.76.17 0 .285.17.475.607.456 1.043 3.493 8.788 4.708 11.674.72 1.706 1.272 1.972 1.67 2.066.285.057.57.076.797.076.152 0 .247.02.247.152 0 .15-.172.19-.874.19-.684 0-2.07 0-3.587-.04-.344-.018-.57-.018-.57-.15 0-.114.074-.152.264-.172.133-.037.266-.21.17-.436l-1.52-4.025c-.037-.093-.094-.132-.188-.132h-4.233zm3.872-.947c.095 0 .114-.058.095-.114l-1.706-4.69c-.02-.075-.038-.17-.095-.17s-.096.095-.115.17l-1.746 4.67c-.02.075 0 .133.075.133h3.492z"/><path d="M121.79 52.91c-.094 0-.132.04-.17.153l-1.024 2.715c-.19.475-.285.93-.285 1.158 0 .34.173.588.76.588h.286c.228 0 .285.038.285.152 0 .15-.113.19-.322.19-.607 0-1.424-.058-2.012-.058-.21 0-1.253.057-2.24.057-.247 0-.36-.038-.36-.19 0-.113.075-.15.227-.15.17 0 .437-.02.59-.04.872-.113 1.232-.758 1.612-1.707l4.765-11.92c.227-.552.34-.76.53-.76.17 0 .285.17.475.607.456 1.043 3.493 8.788 4.708 11.674.72 1.706 1.27 1.972 1.67 2.066.285.057.57.076.797.076.152 0 .247.02.247.152 0 .15-.17.19-.873.19-.684 0-2.07 0-3.588-.04-.34-.018-.57-.018-.57-.15 0-.114.077-.152.267-.172.133-.037.266-.21.17-.436l-1.518-4.025c-.037-.093-.095-.132-.19-.132h-4.234zm3.873-.947c.096 0 .114-.058.096-.114l-1.71-4.69c-.02-.075-.038-.17-.095-.17s-.095.095-.114.17l-1.746 4.67c-.02.075 0 .133.076.133h3.493zm8.657-2.943c0-2.884 0-3.416-.037-4.023-.038-.646-.23-.968-.646-1.063a2.703 2.703 0 0 0-.684-.075c-.19 0-.304-.04-.304-.19 0-.115.15-.153.454-.153.722 0 1.917.058 2.468.058.475 0 1.594-.058 2.315-.058.247 0 .398.038.398.15 0 .153-.114.19-.304.19s-.34.02-.57.058c-.51.095-.662.418-.7 1.082-.04.607-.04 1.14-.04 4.024v3.34c0 1.843 0 3.343.078 4.16.056.51.188.853.758.93.266.037.684.075.97.075.208 0 .302.057.302.152 0 .133-.15.19-.36.19-1.253 0-2.448-.058-2.96-.058-.438 0-1.633.056-2.393.056-.247 0-.38-.057-.38-.19 0-.095.076-.15.304-.15.285 0 .513-.04.684-.077.38-.077.493-.4.55-.95.096-.797.096-2.297.096-4.138V49.02zm7.82 0c0-2.884 0-3.416-.037-4.023-.037-.646-.19-.948-.816-1.082-.15-.038-.475-.057-.74-.057-.21 0-.322-.038-.322-.17s.133-.172.418-.172c1.006 0 2.2.058 2.695.058.455 0 1.65-.058 2.392-.058.266 0 .398.038.398.17s-.114.172-.342.172c-.208 0-.322.02-.55.057-.513.095-.665.418-.703 1.082-.037.607-.037 1.14-.037 4.024v3.514c0 .816.057 1.727.057 2.676 0 1.08-.076 2.296-.455 3.36-.4 1.156-1.405 2.467-3.228 3.586-.247.152-.55.305-.95.494a.836.836 0 0 1-.38.113c-.075 0-.15-.057-.15-.15s.095-.172.417-.342c.247-.132.53-.34.912-.72 1.44-1.46 1.42-3.36 1.42-7.08v-5.45zm8.22-5.428c.058-.323.17-.493.323-.493s.266.092.512.586l5.183 10.706 5.163-10.84c.154-.303.25-.454.42-.454.17 0 .285.188.34.587l1.73 11.73c.17 1.196.36 1.746.93 1.918.55.17.93.19 1.177.19.17 0 .304.02.304.132 0 .152-.227.21-.492.21-.475 0-3.094-.058-3.854-.115-.437-.038-.55-.095-.55-.208 0-.096.075-.152.208-.21.114-.038.172-.284.096-.815l-1.14-8.354h-.075l-4.137 8.618c-.438.894-.53 1.063-.703 1.063-.17 0-.36-.38-.664-.95-.456-.872-1.956-3.776-2.184-4.308-.17-.398-1.31-2.79-1.974-4.214h-.077l-.987 7.556c-.038.34-.058.588-.058.892 0 .36.248.53.57.607.342.074.607.094.797.094.152 0 .285.037.285.132 0 .17-.17.21-.456.21-.797 0-1.65-.058-1.993-.058-.36 0-1.27.056-1.878.056-.19 0-.342-.038-.342-.21 0-.094.113-.132.304-.132.15 0 .284 0 .57-.057.53-.113.683-.853.777-1.5l1.88-12.374z"/><path d="M170.406 52.91c-.095 0-.134.04-.17.153l-1.026 2.715c-.19.475-.285.93-.285 1.158 0 .34.172.588.76.588h.285c.228 0 .284.038.284.152 0 .15-.114.19-.322.19-.607 0-1.424-.058-2.013-.058-.21 0-1.254.057-2.24.057-.248 0-.36-.038-.36-.19 0-.113.074-.15.227-.15.17 0 .437-.02.59-.04.872-.113 1.232-.758 1.612-1.707l4.763-11.92c.23-.552.342-.76.53-.76.173 0 .286.17.476.607.455 1.043 3.492 8.788 4.707 11.674.722 1.706 1.272 1.972 1.67 2.066.285.057.57.076.798.076.152 0 .246.02.246.152 0 .15-.17.19-.872.19-.685 0-2.07 0-3.588-.04-.342-.018-.57-.018-.57-.15 0-.114.077-.152.267-.172.132-.037.265-.21.17-.436l-1.52-4.025c-.037-.093-.095-.132-.188-.132h-4.237zm3.873-.947c.093 0 .11-.058.093-.114l-1.708-4.69c-.02-.075-.038-.17-.096-.17s-.095.095-.114.17l-1.746 4.67c-.02.075 0 .133.077.133h3.492z"/><path d="M184.87 49.856h.096c.646-.702 3.417-3.53 3.968-4.176.53-.626.948-1.1.948-1.424 0-.208-.075-.342-.266-.38-.17-.037-.246-.076-.246-.19 0-.132.095-.17.304-.17.398 0 1.442.058 1.955.058.587 0 1.63-.058 2.22-.058.19 0 .322.038.322.17s-.096.172-.285.172c-.266 0-.74.075-1.102.21-.588.227-1.233.625-2.05 1.422-.588.57-3.454 3.418-4.1 4.1.683.893 4.403 4.898 5.144 5.6.835.8 1.69 1.652 2.714 2.05.57.23.95.286 1.177.286.134 0 .248.038.248.152 0 .133-.097.19-.457.19h-1.65c-.57 0-.91 0-1.31-.04-1.024-.094-1.54-.512-2.354-1.232-.835-.74-4.575-5.125-4.974-5.676l-.21-.285h-.094v1.728c0 1.746 0 3.246.058 4.062.037.532.208.95.683 1.025.267.038.684.076.93.076.15 0 .247.057.247.152 0 .133-.15.19-.36.19-1.063 0-2.26-.058-2.733-.058-.437 0-1.633.057-2.392.057-.247 0-.38-.057-.38-.19 0-.095.076-.15.304-.15.284 0 .513-.04.684-.077.38-.076.476-.493.55-1.044.097-.797.097-2.297.097-4.043v-3.34c0-2.886 0-3.418-.038-4.025-.04-.646-.19-.948-.818-1.082-.15-.038-.475-.057-.74-.057-.21 0-.323-.04-.323-.173s.132-.17.417-.17c1.006 0 2.202.057 2.658.057.455 0 1.65-.058 2.297-.058.266 0 .398.038.398.17s-.113.172-.265.172c-.19 0-.305.018-.532.056-.513.095-.664.418-.702 1.082-.036.607-.036 1.14-.036 4.024v.834z"/><path d="M197.514 49.02c0-2.884 0-3.416-.038-4.023-.038-.646-.19-.948-.816-1.082-.152-.038-.475-.057-.74-.057-.21 0-.322-.038-.322-.17s.133-.172.417-.172c.513 0 1.063.02 1.538.02.493.02.93.038 1.195.038.607 0 4.385 0 4.746-.02a7.93 7.93 0 0 0 .816-.113c.094-.02.208-.074.303-.074.096 0 .114.076.114.17 0 .133-.095.36-.15 1.234-.02.188-.06 1.024-.097 1.252-.02.095-.057.208-.19.208s-.17-.094-.17-.266c0-.133-.02-.455-.114-.683-.133-.34-.322-.567-1.27-.682-.323-.038-2.317-.076-2.696-.076-.095 0-.133.06-.133.19v4.804c0 .133.02.208.133.208.418 0 2.6 0 3.037-.038.455-.037.74-.095.91-.285.134-.15.21-.246.305-.246.076 0 .133.038.133.152 0 .113-.076.417-.152 1.385-.02.38-.075 1.14-.075 1.273 0 .15 0 .36-.17.36-.134 0-.172-.076-.172-.17-.02-.19-.02-.438-.076-.684-.095-.38-.36-.666-1.063-.74-.36-.04-2.24-.06-2.695-.06-.094 0-.113.077-.113.19v1.5c0 .646-.02 2.39 0 2.94.036 1.31.34 1.596 2.275 1.596.494 0 1.29 0 1.785-.228.494-.228.722-.626.855-1.404.038-.21.076-.284.21-.284.15 0 .15.15.15.34 0 .437-.15 1.728-.246 2.107-.135.493-.306.493-1.027.493-1.423 0-2.468-.038-3.284-.057a41.728 41.728 0 0 0-1.975-.057c-.21 0-.626 0-1.082.02-.437 0-.93.037-1.31.037-.247 0-.38-.057-.38-.19 0-.095.076-.15.304-.15.285 0 .513-.04.684-.077.38-.076.476-.493.55-1.044.097-.797.097-2.297.097-4.043v-3.34zm10.858 0c0-2.884 0-3.416-.038-4.023-.038-.646-.19-.948-.816-1.082-.15-.038-.475-.057-.74-.057-.21 0-.323-.038-.323-.17s.133-.172.418-.172c1.006 0 2.202.058 2.6.058.647 0 2.09-.058 2.678-.058 1.197 0 2.47.114 3.494.816.53.36 1.29 1.33 1.29 2.6 0 1.405-.587 2.696-2.505 4.253 1.69 2.126 3 3.815 4.12 4.992 1.06 1.1 1.84 1.234 2.124 1.29.21.038.38.058.532.058.15 0 .228.057.228.152 0 .15-.134.19-.36.19h-1.804c-1.064 0-1.54-.097-2.032-.362-.816-.436-1.538-1.328-2.6-2.79-.76-1.044-1.634-2.335-1.88-2.62-.096-.113-.21-.132-.342-.132l-1.65-.038c-.096 0-.152.038-.152.152v.266c0 1.765 0 3.265.094 4.062.058.55.172.968.74 1.044.285.036.703.074.93.074.152 0 .23.057.23.152 0 .133-.134.19-.38.19-1.102 0-2.506-.058-2.79-.058-.36 0-1.558.056-2.316.056-.247 0-.38-.057-.38-.19 0-.095.076-.15.304-.15.284 0 .513-.04.684-.077.38-.077.475-.494.55-1.045.096-.797.096-2.297.096-4.043v-3.34zm2.24 1.5c0 .21.038.285.17.343.4.133.97.19 1.444.19.76 0 1.006-.077 1.348-.323.57-.418 1.12-1.29 1.12-2.848 0-2.695-1.784-3.475-2.905-3.475-.477 0-.818.02-1.008.076-.133.038-.17.114-.17.266v5.77z"/><path d="M221.375 57.638c-.304-.133-.36-.227-.36-.645 0-1.045.076-2.184.095-2.486.02-.285.076-.494.228-.494.17 0 .19.17.19.322 0 .247.075.646.17.97.418 1.403 1.538 1.916 2.715 1.916 1.708 0 2.544-1.156 2.544-2.162 0-.93-.285-1.804-1.86-3.037l-.873-.682c-2.09-1.633-2.81-2.962-2.81-4.5 0-2.088 1.746-3.587 4.385-3.587 1.232 0 2.03.19 2.523.324.17.037.266.094.266.227 0 .25-.077.8-.077 2.28 0 .417-.057.57-.21.57-.132 0-.188-.115-.188-.344 0-.17-.096-.76-.494-1.252-.284-.36-.834-.93-2.067-.93-1.405 0-2.26.815-2.26 1.954 0 .873.438 1.538 2.013 2.733l.53.4c2.298 1.727 3.114 3.036 3.114 4.84 0 1.1-.417 2.41-1.783 3.303-.95.607-2.013.778-3.02.778-1.1.003-1.955-.13-2.772-.49z"/></g><path d="M56.823 31.203c-.547 0-1.04-.054-1.477-.16s-.823-.26-1.156-.46c-.333-.2-.617-.446-.852-.735s-.422-.616-.562-.98a4.198 4.198 0 0 1-.246-.97 8.54 8.54 0 0 1-.074-1.187v-6.154h1.914v5.984c0 .738.088 1.316.266 1.733.198.464.487.798.867 1.004.38.206.828.31 1.344.31s.963-.104 1.344-.31c.38-.206.67-.54.87-1.004.176-.417.265-.995.265-1.734v-5.986h1.914v6.156c0 .44-.026.834-.075 1.19-.05.353-.132.676-.246.968-.14.364-.33.69-.567.98a3.19 3.19 0 0 1-.867.734c-.34.2-.733.354-1.176.46-.445.108-.94.16-1.487.16zm9.755-.195V20.555h1.914v10.453h-1.914zm11.567 0H76.23v-8.852h-3.374v-1.602h8.656v1.602h-3.367v8.852zm11.607-2.555c.192-.567.332-.973.418-1.215s.267-.738.543-1.488l1.938-5.195h2.025L90.59 31.008h-1.72l-4.086-10.453h2.04l1.937 5.195c.277.75.458 1.246.544 1.488s.225.647.418 1.215h.032zm14.333-.11h-3.937l-1.024 2.665h-2.04l4.15-10.453h1.75l4.147 10.453h-2.02l-1.024-2.664zM102.1 23.07a57.568 57.568 0 0 1-.977 2.742l-.357.93h2.702l-.357-.93a81.648 81.648 0 0 1-.976-2.74h-.032zm15.38 5.274h-3.937l-1.024 2.664h-2.04l4.147-10.453h1.75l4.148 10.453h-2.023l-1.023-2.664zm-1.984-5.273a57.442 57.442 0 0 1-.978 2.743l-.357.93h2.704l-.357-.93a77.17 77.17 0 0 1-.978-2.74h-.033zm17.13.626c0 .73-.202 1.348-.605 1.855-.402.51-1.025.886-1.87 1.13v.03l3.11 4.3h-2.297l-2.844-4.048h-1.313v4.048h-1.914V20.555h3.18c.525 0 1.016.03 1.47.09s.84.15 1.163.27c.614.234 1.088.582 1.422 1.043.332.46.5 1.04.5 1.738zm-4.875 1.664c.44 0 .81-.02 1.115-.06s.56-.097.77-.175c.385-.146.652-.345.8-.598s.224-.543.224-.87c0-.282-.06-.53-.177-.747s-.316-.387-.598-.512a2.536 2.536 0 0 0-.688-.184 7.308 7.308 0 0 0-1.023-.06h-1.367v3.204h.945zm14.343 5.648h-1.914v-8.852h-3.377v-1.602h8.656v1.602h-3.368v8.852zm15.324-10.453v1.04l-5.594 7.81h5.664v1.603h-8.21v-1.03l5.6-7.82h-5.46v-1.603h8zm14.623 5.225c0 .798-.113 1.528-.34 2.192s-.56 1.235-.992 1.715c-.436.48-.97.852-1.602 1.117s-1.354.398-2.16.398c-.81 0-1.527-.133-2.16-.398s-1.168-.638-1.602-1.117c-.436-.48-.766-1.05-.992-1.715s-.34-1.395-.34-2.19.113-1.528.34-2.192.557-1.235.992-1.715c.434-.48.97-.852 1.602-1.117s1.352-.398 2.16-.398c.807 0 1.527.133 2.16.398s1.166.638 1.602 1.117c.434.48.766 1.05.992 1.715s.34 1.395.34 2.19zm-1.976 0c0-.635-.078-1.19-.234-1.667s-.373-.874-.648-1.19a2.61 2.61 0 0 0-.984-.712c-.38-.154-.797-.232-1.25-.232s-.87.078-1.25.234a2.6 2.6 0 0 0-.984.712c-.277.317-.492.715-.648 1.19s-.234 1.033-.234 1.67.078 1.19.234 1.667.37.87.648 1.188c.275.315.604.552.984.71.38.16.797.24 1.25.24s.87-.08 1.25-.24a2.65 2.65 0 0 0 .984-.71c.275-.315.492-.71.648-1.188s.234-1.033.234-1.67zm14.62-2.084c0 .73-.2 1.348-.604 1.855-.403.51-1.027.886-1.87 1.13v.03l3.108 4.3h-2.297l-2.842-4.048h-1.312v4.048h-1.914V20.555h3.18c.527 0 1.017.03 1.47.09s.842.15 1.164.27c.615.234 1.09.582 1.422 1.043.333.46.5 1.04.5 1.738zm-4.874 1.664c.438 0 .81-.02 1.113-.06s.562-.097.77-.175c.386-.146.652-.345.8-.598s.224-.543.224-.87c0-.282-.06-.53-.176-.747s-.314-.387-.596-.512a2.506 2.506 0 0 0-.688-.184 7.298 7.298 0 0 0-1.023-.06h-1.367v3.204h.945zm16.568 1.656h-2.344v-1.602h4.258v5.273c-.156.058-.355.117-.598.18s-.514.118-.812.168c-.3.05-.608.09-.926.12a9.434 9.434 0 0 1-.945.048c-.936 0-1.755-.126-2.455-.38-.7-.252-1.284-.607-1.75-1.065a4.36 4.36 0 0 1-1.047-1.637c-.232-.63-.348-1.33-.348-2.096 0-.542.06-1.06.183-1.55a5.348 5.348 0 0 1 1.402-2.505c.338-.34.725-.63 1.16-.868.435-.238.91-.422 1.43-.55a6.94 6.94 0 0 1 1.668-.19c.525 0 1.025.037 1.5.112.474.075.86.168 1.164.277v1.625c-.406-.13-.816-.23-1.23-.297s-.832-.102-1.254-.102c-.568 0-1.1.085-1.594.254a3.562 3.562 0 0 0-1.287.75c-.362.33-.647.737-.855 1.222-.21.484-.313 1.044-.313 1.68.005 1.234.328 2.16.97 2.777s1.548.924 2.726.924a6.964 6.964 0 0 0 1.298-.125v-2.445z" fill="#88837F"/></svg>