<svg version="1.1" id="Layer_1" xmlns="http://www.w3.org/2000/svg" x="0" y="0" width="249.428" height="36.389" viewBox="0 0 249.428 36.389" xml:space="preserve"><path fill="#968172" d="M33.22.02H2.052C.917.02 0 1 0 2.21v26.995c0 1.21.917 2.188 2.052 2.188H33.22c1.13 0 2.05-.977 2.05-2.187V2.208c0-1.21-.92-2.187-2.05-2.187zM19.295 23.557h-3.948v-6.612s.19-1.285-1.165-1.285H9.328v3.83s.046 3.663-2.95 4.425h-.31s.57-1.025.57-3.21V9.142c0-1.407-1.26-1.407-1.26-1.407V7.5h3.95v6.994h6.02v-2.88V7.5h2.685v14.415c0 1.403 1.262 1.403 1.262 1.403v.238zm10.57.248c-1.284 0-3.088-.43-4.468-1.928L19.5 15.504s4.492.405 4.492-3.732c0-1.618-.85-3.28-3.015-3.28h-1.564v-.95h2.11c3.04 0 5.35 1.116 5.35 4.04 0 2.687-2.07 4.207-3.543 4.496l6.56 7.393-.025.334z"/><g fill="#635D59"><path d="M57.055 23.178c.057 0 .114-.037.114-.133v-.398c0-2.885 0-3.417-.04-4.024-.037-.646-.19-.948-.815-1.082-.152-.037-.475-.056-.74-.056-.208 0-.323-.038-.323-.17s.133-.172.4-.172c1.024 0 2.22.058 2.732.058.456 0 1.65-.058 2.392-.058.266 0 .398.038.398.17s-.114.172-.34.172c-.153 0-.324.02-.552.057-.513.096-.664.42-.702 1.083-.038.607-.038 1.14-.038 4.024v3.34c0 1.747 0 3.247.095 4.063.057.532.17.95.74 1.025.266.038.684.076.968.076.21 0 .304.058.304.153 0 .133-.153.19-.38.19-1.234 0-2.43-.058-2.96-.058-.438 0-1.633.057-2.374.057-.266 0-.4-.057-.4-.19 0-.095.077-.15.305-.15a3.1 3.1 0 0 0 .685-.077c.38-.076.475-.493.55-1.044.095-.796.095-2.296.095-4.042v-1.67c0-.077-.057-.114-.114-.114h-7.25c-.058 0-.115.02-.115.113v1.67c0 1.747 0 3.247.096 4.063.057.532.17.95.74 1.025.266.038.684.076.968.076.21 0 .304.058.304.153 0 .133-.152.19-.38.19-1.233 0-2.43-.058-2.96-.058-.437 0-1.632.057-2.392.057-.247 0-.38-.057-.38-.19 0-.095.076-.15.304-.15a3.1 3.1 0 0 0 .684-.077c.38-.076.475-.493.55-1.044.095-.796.095-2.296.095-4.042v-3.34c0-2.886 0-3.418-.04-4.025-.037-.646-.19-.948-.815-1.082-.152-.037-.475-.056-.74-.056-.21 0-.323-.038-.323-.17s.133-.172.398-.172c1.025 0 2.22.058 2.733.058.456 0 1.652-.058 2.392-.058.266 0 .398.038.398.17s-.114.172-.342.172c-.15 0-.322.02-.55.057-.512.096-.664.42-.7 1.083-.04.607-.04 1.14-.04 4.024v.398c0 .096.058.133.115.133h7.25z"/><path d="M66.528 26.537c-.095 0-.134.04-.17.152l-1.026 2.714c-.19.475-.285.93-.285 1.158 0 .34.172.588.76.588h.285c.228 0 .284.038.284.152 0 .15-.114.19-.322.19-.607 0-1.424-.058-2.013-.058-.208 0-1.25.057-2.238.057-.247 0-.36-.037-.36-.188 0-.114.075-.152.227-.152.17 0 .436-.02.587-.038.874-.114 1.234-.76 1.614-1.708l4.765-11.92c.23-.552.342-.76.53-.76.173 0 .286.17.476.607.457 1.044 3.494 8.79 4.71 11.675.72 1.708 1.27 1.974 1.67 2.068.284.057.568.076.797.076.152 0 .246.02.246.15 0 .152-.17.19-.873.19-.684 0-2.068 0-3.587-.038-.342-.02-.57-.02-.57-.15 0-.115.077-.153.267-.173.133-.038.266-.21.17-.437l-1.518-4.025c-.038-.094-.096-.133-.19-.133H66.53zm3.872-.948c.095 0 .113-.06.095-.115l-1.708-4.688c-.02-.075-.038-.17-.096-.17-.056 0-.093.095-.112.17l-1.746 4.67c-.02.075 0 .133.076.133H70.4z"/><path d="M80.12 28.91c.038 1.48.284 1.975.664 2.107.323.113.684.133.987.133.21 0 .323.038.323.152 0 .15-.17.19-.437.19-1.233 0-1.993-.058-2.354-.058-.17 0-1.063.057-2.05.057-.247 0-.418-.02-.418-.188 0-.114.113-.152.304-.152.247 0 .59-.02.854-.095.493-.152.57-.702.588-2.354l.17-11.235c0-.38.06-.646.248-.646.21 0 .38.247.702.588.228.247 3.113 3.34 5.885 6.093 1.29 1.292 3.853 4.026 4.176 4.33h.096l-.19-8.523c-.02-1.158-.188-1.52-.645-1.708-.283-.115-.74-.115-1.005-.115-.228 0-.304-.058-.304-.17 0-.153.21-.172.494-.172.987 0 1.898.058 2.297.058.21 0 .932-.057 1.86-.057.247 0 .438.02.438.17 0 .114-.114.172-.342.172-.19 0-.342 0-.57.057-.53.152-.683.55-.7 1.614l-.21 11.977c0 .418-.076.59-.247.59-.21 0-.438-.21-.646-.418-1.196-1.14-3.626-3.626-5.6-5.58-2.07-2.05-4.177-4.424-4.52-4.785h-.056l.212 7.97zM94.85 31.264c-.303-.133-.36-.227-.36-.645 0-1.046.076-2.185.095-2.487.02-.285.076-.494.23-.494.17 0 .188.17.188.32 0 .248.076.647.17.97.42 1.404 1.54 1.917 2.715 1.917 1.71 0 2.545-1.158 2.545-2.164 0-.93-.285-1.804-1.86-3.037l-.874-.683c-2.09-1.633-2.81-2.962-2.81-4.5 0-2.088 1.746-3.587 4.385-3.587 1.233 0 2.03.19 2.524.323.17.036.265.093.265.226 0 .248-.076.798-.076 2.278 0 .418-.058.57-.21.57-.132 0-.19-.114-.19-.343 0-.17-.094-.758-.492-1.25-.285-.362-.836-.932-2.07-.932-1.404 0-2.258.816-2.258 1.955 0 .873.437 1.538 2.012 2.733l.53.398c2.298 1.728 3.114 3.037 3.114 4.84 0 1.102-.418 2.412-1.784 3.304-.95.607-2.012.778-3.02.778-1.1.002-1.956-.13-2.772-.492zM112.637 22.646c0-2.885 0-3.417-.037-4.024-.04-.646-.19-.948-.816-1.082-.152-.038-.475-.057-.74-.057-.21 0-.323-.038-.323-.17s.134-.172.418-.172c1.007 0 2.203.06 2.602.06.645 0 2.088-.06 2.676-.06 1.196 0 2.468.115 3.493.817.53.36 1.29 1.33 1.29 2.6 0 1.405-.59 2.696-2.506 4.253 1.69 2.126 3 3.815 4.12 4.992 1.06 1.1 1.84 1.234 2.125 1.29.208.038.378.058.53.058s.228.057.228.152c0 .15-.133.19-.36.19h-1.803c-1.063 0-1.538-.097-2.03-.362-.817-.436-1.54-1.328-2.603-2.79-.76-1.044-1.632-2.335-1.88-2.62-.094-.113-.208-.132-.34-.132l-1.65-.038c-.097 0-.153.038-.153.152v.266c0 1.765 0 3.265.094 4.062.058.55.17.968.74 1.044.284.038.702.076.93.076.152 0 .23.057.23.152 0 .133-.134.19-.38.19-1.103 0-2.507-.058-2.79-.058-.36 0-1.558.057-2.316.057-.248 0-.38-.056-.38-.188 0-.096.075-.152.304-.152.284 0 .512-.038.684-.076.38-.076.475-.493.55-1.044.095-.797.095-2.297.095-4.043v-3.34zm2.24 1.5c0 .21.038.284.17.342.4.133.97.19 1.443.19.76 0 1.006-.077 1.348-.323.57-.418 1.12-1.29 1.12-2.848 0-2.695-1.784-3.475-2.904-3.475-.475 0-.816.02-1.006.076-.133.038-.17.114-.17.266v5.772z"/><path d="M128.583 26.537c-.095 0-.134.04-.17.152l-1.026 2.714c-.19.475-.285.93-.285 1.158 0 .34.172.588.76.588h.285c.228 0 .284.038.284.152 0 .15-.113.19-.32.19-.608 0-1.425-.058-2.014-.058-.21 0-1.252.057-2.24.057-.246 0-.36-.037-.36-.188 0-.114.076-.152.23-.152.17 0 .436-.02.588-.038.873-.114 1.233-.76 1.613-1.708l4.764-11.92c.23-.552.343-.76.532-.76.172 0 .285.17.475.607.456 1.044 3.493 8.79 4.708 11.675.722 1.708 1.272 1.974 1.67 2.068.285.057.57.076.798.076.152 0 .246.02.246.15 0 .152-.17.19-.874.19-.684 0-2.068 0-3.587-.038-.343-.02-.57-.02-.57-.15 0-.115.076-.153.266-.173.133-.038.266-.21.17-.437l-1.518-4.025c-.038-.094-.096-.133-.19-.133h-4.235zm3.872-.948c.095 0 .113-.06.095-.115l-1.708-4.688c-.02-.075-.038-.17-.096-.17-.057 0-.094.095-.113.17l-1.746 4.67c-.02.075 0 .133.076.133h3.492z"/><path d="M142.63 26.537c-.095 0-.133.04-.17.152l-1.026 2.714c-.19.475-.284.93-.284 1.158 0 .34.17.588.76.588h.284c.23 0 .285.038.285.152 0 .15-.115.19-.323.19-.607 0-1.424-.058-2.013-.058-.21 0-1.253.057-2.24.057-.247 0-.36-.037-.36-.188 0-.114.076-.152.228-.152.17 0 .437-.02.59-.038.872-.114 1.232-.76 1.612-1.708l4.765-11.92c.227-.552.34-.76.53-.76.17 0 .284.17.475.607.456 1.044 3.493 8.79 4.708 11.675.72 1.708 1.27 1.974 1.67 2.068.285.057.57.076.797.076.152 0 .247.02.247.15 0 .152-.17.19-.873.19-.684 0-2.07 0-3.588-.038-.34-.02-.57-.02-.57-.15 0-.115.077-.153.267-.173.133-.038.266-.21.17-.437l-1.518-4.025c-.037-.094-.095-.133-.19-.133h-4.235zm3.872-.948c.096 0 .114-.06.096-.115l-1.71-4.688c-.018-.075-.036-.17-.094-.17-.057 0-.095.095-.114.17l-1.746 4.67c-.02.075 0 .133.076.133h3.492zM155.16 22.646c0-2.885 0-3.417-.04-4.024-.037-.646-.228-.968-.645-1.063a2.698 2.698 0 0 0-.684-.076c-.188 0-.303-.038-.303-.19 0-.113.152-.15.456-.15.722 0 1.917.057 2.468.057.476 0 1.595-.057 2.316-.057.247 0 .398.038.398.15 0 .153-.114.19-.304.19s-.342.02-.57.058c-.512.096-.663.42-.7 1.083-.04.607-.04 1.14-.04 4.024v3.34c0 1.842 0 3.342.077 4.158.057.512.19.854.76.93.265.038.683.076.968.076.21 0 .303.058.303.153 0 .133-.15.19-.36.19-1.253 0-2.448-.058-2.96-.058-.438 0-1.633.057-2.393.057-.247 0-.38-.057-.38-.19 0-.095.076-.15.304-.15a3.1 3.1 0 0 0 .683-.077c.38-.076.493-.398.55-.95.096-.796.096-2.296.096-4.137v-3.342zM162.98 22.646c0-2.885 0-3.417-.04-4.024-.036-.646-.188-.948-.815-1.082-.15-.038-.475-.057-.74-.057-.21 0-.322-.038-.322-.17s.133-.172.418-.172c1.007 0 2.202.06 2.696.06.455 0 1.65-.06 2.392-.06.266 0 .398.04.398.172s-.114.17-.342.17c-.208 0-.322.02-.55.058-.513.095-.665.418-.703 1.082-.036.607-.036 1.14-.036 4.024v3.512c0 .816.057 1.727.057 2.676 0 1.082-.075 2.297-.454 3.36-.4 1.157-1.405 2.468-3.228 3.587-.247.153-.55.306-.95.495a.843.843 0 0 1-.38.113c-.075 0-.15-.057-.15-.15s.095-.172.417-.342c.247-.134.53-.342.912-.723 1.44-1.46 1.423-3.36 1.423-7.08v-5.447zM171.2 17.218c.056-.323.17-.493.32-.493s.267.094.513.588l5.183 10.706 5.163-10.84c.15-.304.246-.455.417-.455.17 0 .285.19.342.588l1.726 11.73c.172 1.196.36 1.746.93 1.918.55.17.932.19 1.178.19.17 0 .304.02.304.133 0 .152-.228.21-.493.21-.475 0-3.094-.058-3.854-.115-.436-.038-.55-.095-.55-.208 0-.096.076-.152.21-.21.112-.038.17-.284.094-.815l-1.14-8.353h-.075l-4.14 8.618c-.437.893-.53 1.062-.702 1.062-.17 0-.36-.38-.664-.95-.455-.872-1.955-3.776-2.183-4.308-.17-.398-1.31-2.79-1.973-4.214h-.076l-.986 7.555c-.038.342-.058.59-.058.893 0 .36.248.53.57.607.342.075.607.095.797.095.152 0 .285.038.285.133 0 .17-.17.21-.456.21-.797 0-1.65-.058-1.993-.058-.36 0-1.272.057-1.88.057-.19 0-.342-.038-.342-.21 0-.094.113-.132.304-.132.15 0 .284 0 .57-.057.53-.114.683-.854.777-1.5l1.88-12.375z"/><path d="M191.245 26.537c-.095 0-.134.04-.17.152l-1.026 2.714c-.19.475-.286.93-.286 1.158 0 .34.172.588.76.588h.285c.227 0 .283.038.283.152 0 .15-.114.19-.322.19-.606 0-1.423-.058-2.012-.058-.21 0-1.252.057-2.24.057-.246 0-.36-.037-.36-.188 0-.114.076-.152.23-.152.17 0 .436-.02.588-.038.873-.114 1.233-.76 1.613-1.708l4.763-11.92c.23-.552.342-.76.53-.76.173 0 .286.17.476.607.455 1.044 3.492 8.79 4.707 11.675.722 1.708 1.272 1.974 1.67 2.068.285.057.57.076.798.076.152 0 .246.02.246.15 0 .152-.17.19-.872.19-.684 0-2.068 0-3.587-.038-.34-.02-.568-.02-.568-.15 0-.115.076-.153.266-.173.133-.038.266-.21.17-.437l-1.518-4.025c-.038-.094-.096-.133-.19-.133h-4.235zm3.872-.948c.095 0 .113-.06.095-.115l-1.708-4.688c-.02-.075-.038-.17-.096-.17-.057 0-.094.095-.113.17l-1.746 4.67c-.02.075 0 .133.075.133h3.492z"/><path d="M205.71 23.48h.095c.646-.7 3.417-3.53 3.968-4.175.53-.626.948-1.1.948-1.424 0-.207-.074-.34-.265-.38-.17-.036-.246-.075-.246-.188 0-.133.094-.17.303-.17.398 0 1.442.057 1.955.057.59 0 1.632-.06 2.22-.06.19 0 .324.04.324.172s-.096.17-.285.17c-.266 0-.74.076-1.102.21-.588.228-1.233.626-2.05 1.423-.588.57-3.454 3.418-4.1 4.1.683.893 4.403 4.898 5.144 5.6.835.8 1.688 1.652 2.714 2.05.57.23.95.286 1.177.286.134 0 .248.04.248.153 0 .133-.096.19-.456.19h-1.65c-.57 0-.912 0-1.31-.04-1.025-.094-1.54-.512-2.355-1.232-.835-.74-4.575-5.124-4.974-5.675l-.21-.285h-.094v1.728c0 1.746 0 3.246.057 4.062.037.532.208.95.683 1.025.267.038.684.076.93.076.152 0 .247.058.247.153 0 .133-.15.19-.36.19-1.063 0-2.26-.058-2.733-.058-.437 0-1.633.057-2.392.057-.247 0-.38-.057-.38-.19 0-.095.076-.15.304-.15.284 0 .513-.04.684-.077.38-.076.475-.493.55-1.044.096-.796.096-2.296.096-4.042v-3.34c0-2.886 0-3.418-.038-4.025-.038-.646-.19-.948-.816-1.082-.15-.037-.475-.056-.74-.056-.21 0-.323-.038-.323-.17s.132-.172.417-.172c1.006 0 2.202.058 2.658.058.455 0 1.65-.058 2.297-.058.266 0 .398.038.398.17s-.114.172-.266.172c-.19 0-.305.02-.532.057-.513.096-.664.42-.702 1.083-.038.607-.038 1.14-.038 4.024v.834z"/><path d="M218.353 22.646c0-2.885 0-3.417-.038-4.024-.038-.646-.19-.948-.816-1.082-.153-.038-.476-.057-.74-.057-.21 0-.323-.038-.323-.17s.133-.172.417-.172c.513 0 1.063.02 1.538.02.493.02.93.04 1.195.04.607 0 4.385 0 4.746-.02a7.93 7.93 0 0 0 .816-.114c.093-.02.207-.076.302-.076.096 0 .114.076.114.17 0 .133-.095.36-.15 1.234-.02.19-.06 1.025-.097 1.253-.02.095-.058.208-.19.208s-.17-.094-.17-.266c0-.134-.02-.456-.115-.684-.133-.342-.322-.57-1.27-.684-.323-.038-2.317-.076-2.696-.076-.096 0-.134.058-.134.19v4.803c0 .132.02.207.133.207.417 0 2.6 0 3.036-.038.455-.038.74-.096.91-.286.134-.15.21-.246.305-.246.077 0 .134.038.134.152 0 .113-.076.417-.152 1.385-.02.38-.075 1.14-.075 1.272 0 .15 0 .36-.17.36-.134 0-.172-.076-.172-.17-.02-.19-.02-.438-.076-.684-.096-.38-.36-.665-1.064-.74-.36-.04-2.24-.058-2.695-.058-.093 0-.112.076-.112.19v1.5c0 .645-.02 2.39 0 2.94.038 1.31.342 1.595 2.277 1.595.494 0 1.29 0 1.785-.228.493-.228.72-.626.854-1.404.038-.21.076-.284.21-.284.15 0 .15.15.15.34 0 .438-.15 1.73-.246 2.108-.133.493-.304.493-1.025.493-1.423 0-2.468-.038-3.284-.057a41.728 41.728 0 0 0-1.975-.057c-.21 0-.626 0-1.082.02-.437 0-.93.038-1.31.038-.247 0-.38-.057-.38-.19 0-.095.076-.15.304-.15a3.1 3.1 0 0 0 .684-.077c.38-.075.476-.492.552-1.043.095-.797.095-2.297.095-4.043v-3.338zM229.21 22.646c0-2.885 0-3.417-.037-4.024-.038-.646-.19-.948-.816-1.082-.15-.038-.475-.057-.74-.057-.21 0-.323-.038-.323-.17s.133-.172.418-.172c1.006 0 2.202.06 2.6.06.647 0 2.09-.06 2.678-.06 1.195 0 2.467.115 3.492.817.53.36 1.29 1.33 1.29 2.6 0 1.405-.587 2.696-2.505 4.253 1.69 2.126 3 3.815 4.12 4.992 1.062 1.1 1.84 1.234 2.125 1.29.21.038.38.058.532.058.15 0 .228.057.228.152 0 .15-.134.19-.36.19h-1.804c-1.063 0-1.538-.097-2.03-.362-.817-.436-1.54-1.328-2.602-2.79-.76-1.044-1.633-2.335-1.88-2.62-.095-.113-.208-.132-.34-.132l-1.652-.038c-.095 0-.15.038-.15.152v.266c0 1.765 0 3.265.093 4.062.058.55.172.968.74 1.044.285.038.703.076.93.076.152 0 .23.057.23.152 0 .133-.134.19-.38.19-1.102 0-2.506-.058-2.79-.058-.36 0-1.558.057-2.316.057-.246 0-.38-.056-.38-.188 0-.096.077-.152.305-.152.284 0 .513-.038.684-.076.38-.076.474-.493.55-1.044.095-.797.095-2.297.095-4.043v-3.34zm2.24 1.5c0 .21.038.284.17.342.4.133.97.19 1.444.19.76 0 1.006-.077 1.348-.323.57-.418 1.12-1.29 1.12-2.848 0-2.695-1.784-3.475-2.905-3.475-.475 0-.816.02-1.006.076-.132.038-.17.114-.17.266v5.772z"/><path d="M242.214 31.264c-.304-.133-.36-.227-.36-.645 0-1.046.076-2.185.095-2.487.018-.285.075-.494.227-.494.17 0 .19.17.19.32 0 .248.075.647.17.97.418 1.404 1.538 1.917 2.715 1.917 1.708 0 2.544-1.158 2.544-2.164 0-.93-.285-1.804-1.86-3.037l-.873-.683c-2.09-1.633-2.81-2.962-2.81-4.5 0-2.088 1.746-3.587 4.385-3.587 1.234 0 2.03.19 2.525.323.17.036.266.093.266.226 0 .248-.077.798-.077 2.278 0 .418-.057.57-.21.57-.132 0-.188-.114-.188-.343 0-.17-.096-.758-.494-1.25-.284-.362-.834-.932-2.067-.932-1.405 0-2.26.816-2.26 1.955 0 .873.438 1.538 2.013 2.733l.53.398c2.298 1.728 3.114 3.037 3.114 4.84 0 1.102-.418 2.412-1.784 3.304-.95.607-2.013.778-3.02.778-1.1.002-1.956-.13-2.772-.492z"/></g><g fill="#635D59"><path d="M51.632 10.662c-.547 0-1.04-.054-1.477-.16s-.823-.26-1.156-.46c-.334-.2-.618-.446-.853-.735s-.422-.615-.562-.98a4.19 4.19 0 0 1-.246-.97 8.555 8.555 0 0 1-.075-1.187V.014h1.914v5.984c0 .74.087 1.318.265 1.734.198.464.487.8.867 1.004.38.206.828.31 1.344.31s.963-.104 1.344-.31c.38-.205.67-.54.867-1.004.177-.416.266-.994.266-1.734V.014h1.914V6.17c0 .438-.025.834-.074 1.188-.05.354-.132.678-.246.97-.14.364-.33.69-.566.98-.236.288-.525.533-.866.733-.34.202-.733.355-1.176.462a6.41 6.41 0 0 1-1.486.16zM61.387 10.467V.014H63.3v10.453h-1.913zM72.954 10.467H71.04V1.615h-3.375v-1.6h8.656v1.6h-3.366v8.852zM84.56 7.912c.194-.567.333-.973.42-1.215s.267-.738.542-1.488L87.46.013h2.023l-4.086 10.453h-1.72L79.593.014h2.04l1.937 5.195c.275.75.456 1.245.542 1.487s.226.647.418 1.215h.03zM98.894 7.803h-3.937l-1.023 2.664h-2.04L96.045.014h1.75l4.147 10.453H99.92l-1.024-2.664zM96.91 2.53a57.716 57.716 0 0 1-.98 2.74l-.356.93h2.702l-.357-.93c-.284-.74-.61-1.654-.98-2.74h-.03zM112.29 7.803h-3.938l-1.024 2.664h-2.04L109.44.014h1.75l4.147 10.453h-2.023l-1.023-2.664zm-1.985-5.274a58.99 58.99 0 0 1-.978 2.74l-.357.93h2.702l-.357-.93c-.283-.74-.61-1.654-.98-2.74h-.03zM127.436 3.154c0 .73-.203 1.348-.605 1.855-.403.507-1.026.884-1.87 1.128v.032l3.11 4.297h-2.298l-2.844-4.047h-1.312v4.047h-1.914V.014h3.18c.525 0 1.016.03 1.47.09.452.06.84.15 1.163.27.613.234 1.088.582 1.422 1.043.33.46.5 1.04.5 1.737zm-4.875 1.664c.44 0 .81-.02 1.114-.06s.56-.097.77-.175c.385-.146.652-.345.8-.598a1.69 1.69 0 0 0 .224-.87c0-.282-.06-.53-.176-.747-.117-.216-.316-.387-.598-.512a2.547 2.547 0 0 0-.688-.184 7.493 7.493 0 0 0-1.023-.06h-1.367v3.204h.945zM136.9 10.467h-1.913V1.615h-3.375v-1.6h8.656v1.6H136.9v8.852zM152.227.014v1.04l-5.594 7.81h5.664v1.603h-8.21v-1.03l5.6-7.82h-5.46V.013h8zM166.85 5.24c0 .797-.114 1.527-.34 2.19s-.56 1.237-.993 1.716c-.435.48-.97.852-1.602 1.117s-1.353.398-2.16.398-1.527-.132-2.16-.397-1.167-.638-1.602-1.117c-.435-.48-.766-1.05-.992-1.715s-.34-1.394-.34-2.19.114-1.527.34-2.19.56-1.236.993-1.716c.435-.48.97-.852 1.602-1.117s1.353-.398 2.16-.398 1.527.132 2.16.397 1.167.64 1.602 1.117c.435.48.766 1.05.992 1.715s.34 1.393.34 2.19zm-1.978 0c0-.635-.078-1.19-.234-1.668s-.372-.873-.648-1.19c-.276-.318-.604-.556-.984-.712s-.797-.234-1.25-.234-.87.078-1.25.234-.708.394-.984.71c-.276.32-.492.716-.648 1.192s-.234 1.033-.234 1.668c0 .636.078 1.19.234 1.668s.372.873.648 1.188c.276.315.604.553.984.71.38.16.797.24 1.25.24s.87-.08 1.25-.24c.38-.157.708-.395.984-.71.276-.314.492-.71.648-1.188s.234-1.032.234-1.668zM179.494 3.154c0 .73-.202 1.348-.605 1.855-.405.507-1.028.884-1.872 1.128v.032l3.11 4.297h-2.298l-2.844-4.047h-1.312v4.047h-1.914V.014h3.18c.525 0 1.016.03 1.47.09.452.06.84.15 1.163.27.614.234 1.088.582 1.422 1.043.332.46.5 1.04.5 1.737zm-4.875 1.664c.437 0 .808-.02 1.112-.06s.56-.097.77-.175c.385-.146.652-.345.8-.598a1.69 1.69 0 0 0 .224-.87c0-.282-.06-.53-.176-.747-.117-.216-.316-.387-.598-.512a2.536 2.536 0 0 0-.688-.184 7.483 7.483 0 0 0-1.023-.06h-1.366v3.204h.945zM191.188 6.475h-2.344V4.873h4.258v5.273c-.156.058-.355.117-.598.18s-.514.12-.812.168c-.3.05-.61.09-.926.12-.318.032-.633.048-.945.048-.937 0-1.757-.127-2.456-.38-.7-.25-1.285-.606-1.75-1.065a4.35 4.35 0 0 1-1.047-1.637 6.056 6.056 0 0 1-.348-2.098c0-.54.06-1.06.183-1.55.12-.493.3-.948.54-1.368A5.144 5.144 0 0 1 186.965.56c.433-.24.91-.423 1.43-.55a6.99 6.99 0 0 1 1.667-.192c.525 0 1.025.038 1.5.113.473.077.86.17 1.164.278v1.625a8.6 8.6 0 0 0-1.23-.297 7.838 7.838 0 0 0-1.254-.102c-.568 0-1.1.085-1.594.254-.497.17-.925.42-1.286.75-.363.33-.648.738-.855 1.223-.21.485-.313 1.046-.313 1.68.004 1.235.328 2.16.97 2.778s1.548.926 2.726.926a6.98 6.98 0 0 0 1.297-.125V6.474z"/></g></svg>