<svg xmlns="http://www.w3.org/2000/svg" width="204.388" height="88.973" viewBox="24.562 -26.21 204.388 88.973"><path fill="#968172" d="M143.193-26.21h-32.87c-1.198 0-2.165 1.03-2.165 2.306v28.47c0 1.277.967 2.308 2.165 2.308h32.87c1.192 0 2.16-1.03 2.16-2.308v-28.47c0-1.274-.968-2.306-2.16-2.306zM128.507-1.39h-4.164v-6.973s.2-1.355-1.228-1.355h-5.12v4.04s.05 3.863-3.11 4.667h-.328s.6-1.082.6-3.387V-16.59c0-1.48-1.327-1.48-1.327-1.48v-.25h4.165v7.375h6.348v-3.036-4.34h2.834V-3.12c0 1.48 1.33 1.48 1.33 1.48v.25zm11.147.262c-1.354 0-3.257-.454-4.71-2.033l-6.22-6.72s4.737.426 4.737-3.938c0-1.706-.896-3.46-3.18-3.46h-1.65v-1h2.228c3.205 0 5.64 1.177 5.64 4.26 0 2.833-2.18 4.437-3.734 4.742l6.917 7.797-.026.352z"/><g fill="#635D59"><path d="M36.217 49.552c.057 0 .114-.037.114-.133v-.4c0-2.884 0-3.416-.037-4.023-.038-.646-.19-.948-.816-1.082-.152-.038-.475-.057-.74-.057-.208 0-.323-.038-.323-.17s.133-.172.4-.172c1.024 0 2.22.058 2.732.058.456 0 1.65-.058 2.392-.058.266 0 .398.038.398.17s-.114.172-.34.172c-.153 0-.324.02-.552.057-.513.095-.664.418-.702 1.082-.038.607-.038 1.14-.038 4.024v3.342c0 1.746 0 3.246.095 4.062.056.532.17.95.74 1.025.265.037.683.075.967.075.21 0 .304.057.304.152 0 .133-.15.19-.378.19-1.234 0-2.43-.058-2.96-.058-.438 0-1.633.056-2.374.056-.266 0-.4-.057-.4-.19 0-.095.077-.15.305-.15.285 0 .513-.04.684-.077.38-.077.475-.494.55-1.045.095-.797.095-2.297.095-4.043v-1.67c0-.077-.057-.114-.114-.114h-7.25c-.058 0-.115.02-.115.113v1.672c0 1.746 0 3.246.095 4.062.057.532.17.95.74 1.025.266.037.684.075.968.075.21 0 .304.057.304.152 0 .133-.152.19-.38.19-1.233 0-2.43-.058-2.96-.058-.437 0-1.632.056-2.392.056-.247 0-.38-.057-.38-.19 0-.095.076-.15.304-.15.285 0 .513-.04.684-.077.38-.077.475-.494.55-1.045.095-.797.095-2.297.095-4.043v-3.34c0-2.886 0-3.418-.037-4.025-.038-.646-.19-.948-.816-1.082-.152-.038-.475-.057-.74-.057-.21 0-.323-.038-.323-.17s.133-.172.398-.172c1.025 0 2.22.058 2.733.058.456 0 1.652-.058 2.392-.058.266 0 .398.038.398.17s-.114.172-.342.172c-.152 0-.323.02-.55.057-.513.095-.665.418-.702 1.082-.037.607-.037 1.14-.037 4.024v.4c0 .095.057.132.114.132h7.25z"/><path d="M45.69 52.91c-.095 0-.133.04-.17.153l-1.026 2.715c-.19.475-.285.93-.285 1.158 0 .34.17.588.758.588h.285c.228 0 .285.038.285.152 0 .15-.114.19-.322.19-.607 0-1.424-.058-2.012-.058-.21 0-1.253.057-2.24.057-.247 0-.36-.038-.36-.19 0-.113.075-.15.227-.15.17 0 .438-.02.59-.04.872-.113 1.233-.758 1.612-1.707l4.765-11.92c.228-.552.34-.76.53-.76.172 0 .286.17.476.607.456 1.043 3.493 8.788 4.708 11.674.722 1.707 1.273 1.973 1.67 2.067.286.057.57.076.798.076.152 0 .247.02.247.152 0 .15-.17.19-.873.19-.684 0-2.07 0-3.587-.04-.342-.018-.57-.018-.57-.15 0-.114.076-.152.266-.172.134-.037.267-.21.17-.436l-1.518-4.025c-.038-.094-.095-.133-.19-.133H45.69zm3.872-.947c.095 0 .114-.058.095-.114l-1.708-4.69c-.02-.074-.04-.17-.096-.17-.057 0-.095.096-.114.17l-1.746 4.67c-.02.076 0 .134.076.134h3.492z"/><path d="M59.28 55.284c.04 1.48.286 1.975.665 2.107.323.114.684.134.987.134.208 0 .322.038.322.152 0 .15-.17.19-.437.19-1.233 0-1.993-.058-2.354-.058-.17 0-1.063.057-2.05.057-.247 0-.417-.02-.417-.19 0-.113.114-.15.304-.15.247 0 .588-.02.854-.096.493-.153.57-.703.588-2.355l.17-11.236c0-.38.057-.647.247-.647.208 0 .378.248.7.59.23.246 3.114 3.34 5.886 6.092 1.29 1.29 3.853 4.025 4.176 4.328h.095l-.19-8.522c-.018-1.157-.19-1.518-.645-1.707-.285-.114-.74-.114-1.006-.114-.228 0-.304-.06-.304-.172 0-.152.208-.17.493-.17.987 0 1.898.057 2.297.057.21 0 .93-.058 1.86-.058.247 0 .437.02.437.17 0 .114-.115.172-.343.172-.19 0-.342 0-.57.056-.53.152-.683.55-.7 1.614l-.21 11.977c0 .418-.076.59-.247.59-.21 0-.437-.21-.646-.418-1.196-1.14-3.625-3.627-5.6-5.582-2.07-2.05-4.176-4.423-4.518-4.784h-.057l.21 7.97zM74.01 57.638c-.303-.133-.36-.227-.36-.645 0-1.045.077-2.184.096-2.486.02-.285.076-.494.228-.494.17 0 .19.17.19.322 0 .247.075.646.17.97.418 1.403 1.538 1.916 2.714 1.916 1.708 0 2.544-1.157 2.544-2.163 0-.93-.285-1.804-1.86-3.037l-.873-.683c-2.09-1.633-2.81-2.962-2.81-4.5 0-2.088 1.746-3.587 4.384-3.587 1.234 0 2.03.19 2.525.323.17.037.265.094.265.227 0 .248-.076.798-.076 2.278 0 .418-.058.57-.21.57-.132 0-.19-.114-.19-.343 0-.17-.094-.76-.493-1.252-.285-.36-.835-.93-2.07-.93-1.404 0-2.258.815-2.258 1.954 0 .873.436 1.538 2.01 2.733l.533.398c2.297 1.728 3.113 3.037 3.113 4.84 0 1.102-.417 2.412-1.784 3.304-.95.607-2.012.778-3.018.778-1.102.002-1.956-.13-2.773-.492zM91.798 49.02c0-2.884 0-3.416-.038-4.023-.038-.646-.19-.948-.816-1.082-.152-.038-.475-.057-.74-.057-.21 0-.323-.038-.323-.17s.134-.172.418-.172c1.006 0 2.202.058 2.6.058.647 0 2.09-.058 2.678-.058 1.196 0 2.467.114 3.493.816.53.36 1.29 1.33 1.29 2.6 0 1.405-.588 2.696-2.505 4.253 1.69 2.126 3 3.815 4.12 4.992 1.06 1.1 1.84 1.234 2.125 1.29.208.038.38.058.53.058s.23.057.23.152c0 .15-.134.19-.36.19h-1.804c-1.063 0-1.538-.097-2.03-.362-.817-.436-1.54-1.328-2.602-2.79-.76-1.044-1.632-2.335-1.88-2.62-.094-.113-.208-.132-.34-.132l-1.652-.038c-.095 0-.152.038-.152.152v.266c0 1.765 0 3.265.095 4.062.057.55.17.968.74 1.044.285.037.703.075.93.075.152 0 .228.057.228.152 0 .133-.133.19-.38.19-1.1 0-2.505-.058-2.79-.058-.36 0-1.557.056-2.316.056-.247 0-.38-.057-.38-.19 0-.095.076-.15.304-.15.286 0 .514-.04.685-.077.38-.077.475-.494.55-1.045.095-.797.095-2.297.095-4.043v-3.34zm2.24 1.5c0 .21.038.285.17.343.4.133.97.19 1.443.19.76 0 1.007-.077 1.35-.323.568-.418 1.12-1.29 1.12-2.848 0-2.695-1.785-3.475-2.905-3.475-.475 0-.816.02-1.006.076-.134.038-.172.114-.172.266v5.77z"/><path d="M107.744 52.91c-.095 0-.133.04-.17.153l-1.026 2.715c-.19.475-.285.93-.285 1.158 0 .34.17.588.76.588h.284c.228 0 .285.038.285.152 0 .15-.114.19-.322.19-.607 0-1.424-.058-2.012-.058-.21 0-1.253.057-2.24.057-.247 0-.36-.038-.36-.19 0-.113.075-.15.227-.15.17 0 .437-.02.588-.04.873-.113 1.234-.758 1.613-1.707l4.765-11.92c.23-.552.342-.76.532-.76.17 0 .285.17.475.607.456 1.043 3.493 8.788 4.708 11.674.72 1.707 1.272 1.973 1.67 2.067.285.057.57.076.797.076.152 0 .247.02.247.152 0 .15-.172.19-.874.19-.684 0-2.07 0-3.587-.04-.343-.018-.57-.018-.57-.15 0-.114.075-.152.265-.172.133-.037.266-.21.17-.436l-1.52-4.025c-.037-.094-.094-.133-.188-.133h-4.233zm3.872-.947c.095 0 .114-.058.095-.114l-1.707-4.69c-.02-.074-.038-.17-.095-.17s-.095.096-.114.17l-1.746 4.67c-.02.076 0 .134.076.134h3.492z"/><path d="M121.79 52.91c-.094 0-.132.04-.17.153l-1.024 2.715c-.19.475-.285.93-.285 1.158 0 .34.172.588.76.588h.285c.228 0 .285.038.285.152 0 .15-.114.19-.323.19-.607 0-1.424-.058-2.012-.058-.21 0-1.253.057-2.24.057-.247 0-.36-.038-.36-.19 0-.113.075-.15.227-.15.17 0 .437-.02.59-.04.872-.113 1.232-.758 1.612-1.707l4.765-11.92c.227-.552.34-.76.53-.76.17 0 .285.17.475.607.456 1.043 3.493 8.788 4.708 11.674.72 1.707 1.27 1.973 1.67 2.067.285.057.57.076.797.076.152 0 .247.02.247.152 0 .15-.17.19-.873.19-.684 0-2.07 0-3.588-.04-.34-.018-.57-.018-.57-.15 0-.114.077-.152.267-.172.133-.037.266-.21.17-.436l-1.518-4.025c-.037-.094-.095-.133-.19-.133h-4.234zm3.873-.947c.096 0 .114-.058.096-.114l-1.71-4.69c-.018-.074-.037-.17-.094-.17s-.095.096-.114.17l-1.747 4.67c-.02.076 0 .134.076.134h3.493zM134.32 49.02c0-2.884 0-3.416-.037-4.023-.038-.646-.23-.968-.646-1.063-.21-.057-.456-.075-.684-.075-.19 0-.304-.04-.304-.19 0-.114.15-.152.455-.152.722 0 1.917.058 2.468.058.475 0 1.594-.058 2.315-.058.247 0 .398.038.398.15 0 .153-.114.19-.304.19s-.342.02-.57.058c-.512.095-.663.418-.7 1.082-.04.607-.04 1.14-.04 4.024v3.34c0 1.842 0 3.342.077 4.158.056.512.188.854.758.93.266.038.684.076.97.076.208 0 .302.057.302.152 0 .133-.15.19-.36.19-1.253 0-2.448-.058-2.96-.058-.438 0-1.633.057-2.393.057-.247 0-.38-.057-.38-.19 0-.095.076-.15.304-.15.286 0 .514-.04.685-.077.38-.076.493-.398.55-.95.096-.796.096-2.296.096-4.137V49.02zM142.14 49.02c0-2.884 0-3.416-.037-4.023-.037-.646-.19-.948-.816-1.082-.15-.038-.475-.057-.74-.057-.21 0-.322-.038-.322-.17s.133-.172.418-.172c1.006 0 2.2.058 2.695.058.455 0 1.65-.058 2.392-.058.266 0 .398.038.398.17s-.114.172-.342.172c-.208 0-.322.02-.55.057-.513.095-.665.418-.703 1.082-.037.607-.037 1.14-.037 4.024v3.513c0 .816.057 1.727.057 2.676 0 1.08-.076 2.296-.455 3.36-.4 1.156-1.405 2.467-3.228 3.586-.247.152-.55.305-.95.494-.132.076-.283.113-.38.113-.075 0-.15-.057-.15-.15s.095-.172.417-.342c.247-.133.53-.34.912-.722 1.44-1.46 1.422-3.36 1.422-7.08V49.02zM150.36 43.592c.058-.323.17-.493.323-.493s.266.093.512.587l5.183 10.706 5.163-10.84c.153-.303.248-.454.42-.454.17 0 .284.188.34.587l1.728 11.73c.172 1.196.36 1.746.93 1.918.55.17.932.19 1.178.19.17 0 .304.02.304.132 0 .152-.228.21-.493.21-.475 0-3.094-.058-3.854-.115-.437-.038-.55-.095-.55-.208 0-.096.075-.152.208-.21.114-.038.172-.284.096-.815l-1.14-8.354h-.075l-4.137 8.618c-.438.893-.53 1.062-.703 1.062-.17 0-.36-.38-.664-.95-.455-.872-1.955-3.776-2.183-4.308-.17-.398-1.31-2.79-1.974-4.214h-.077l-.987 7.555c-.038.34-.058.588-.058.892 0 .36.248.53.57.607.342.074.607.094.797.094.152 0 .285.038.285.133 0 .17-.17.21-.456.21-.797 0-1.65-.058-1.993-.058-.36 0-1.27.056-1.878.056-.19 0-.342-.038-.342-.21 0-.094.113-.132.304-.132.15 0 .284 0 .57-.057.53-.114.683-.854.777-1.5l1.88-12.375z"/><path d="M170.406 52.91c-.095 0-.134.04-.17.153l-1.026 2.715c-.19.475-.285.93-.285 1.158 0 .34.172.588.76.588h.285c.228 0 .284.038.284.152 0 .15-.114.19-.322.19-.607 0-1.424-.058-2.013-.058-.21 0-1.253.057-2.24.057-.247 0-.36-.038-.36-.19 0-.113.075-.15.228-.15.17 0 .437-.02.59-.04.872-.113 1.232-.758 1.612-1.707l4.764-11.92c.23-.552.342-.76.53-.76.173 0 .286.17.476.607.456 1.043 3.493 8.788 4.708 11.674.722 1.707 1.272 1.973 1.67 2.067.285.057.57.076.798.076.152 0 .246.02.246.152 0 .15-.17.19-.873.19-.685 0-2.07 0-3.588-.04-.342-.018-.57-.018-.57-.15 0-.114.077-.152.267-.172.132-.037.265-.21.17-.436l-1.52-4.025c-.037-.094-.095-.133-.188-.133h-4.236zm3.873-.947c.094 0 .112-.058.094-.114l-1.708-4.69c-.02-.074-.038-.17-.096-.17-.057 0-.094.096-.113.17l-1.746 4.67c-.02.076 0 .134.077.134h3.492z"/><path d="M184.87 49.856h.096c.646-.702 3.417-3.53 3.968-4.176.53-.626.948-1.1.948-1.424 0-.208-.075-.342-.266-.38-.17-.037-.246-.076-.246-.19 0-.132.095-.17.304-.17.398 0 1.442.058 1.955.058.588 0 1.63-.058 2.22-.058.19 0 .323.038.323.17s-.096.172-.285.172c-.266 0-.74.075-1.102.21-.588.227-1.233.625-2.05 1.422-.588.57-3.454 3.418-4.1 4.1.683.893 4.403 4.898 5.144 5.6.836.8 1.69 1.652 2.715 2.05.57.23.95.286 1.177.286.133 0 .247.038.247.152 0 .133-.097.19-.457.19h-1.65c-.57 0-.912 0-1.31-.04-1.025-.094-1.54-.512-2.355-1.232-.835-.74-4.575-5.125-4.974-5.676l-.21-.285h-.094v1.728c0 1.746 0 3.246.058 4.062.037.532.208.95.683 1.025.268.038.685.076.932.076.15 0 .246.057.246.152 0 .133-.15.19-.36.19-1.063 0-2.26-.058-2.733-.058-.437 0-1.633.057-2.392.057-.247 0-.38-.057-.38-.19 0-.095.076-.15.304-.15.284 0 .513-.04.684-.077.38-.076.476-.493.55-1.044.097-.797.097-2.297.097-4.043v-3.34c0-2.886 0-3.418-.038-4.025-.04-.646-.19-.948-.817-1.082-.15-.038-.475-.057-.74-.057-.21 0-.323-.04-.323-.172s.133-.17.418-.17c1.006 0 2.202.057 2.658.057.455 0 1.65-.058 2.297-.058.266 0 .398.038.398.17s-.113.172-.265.172c-.19 0-.305.018-.532.056-.513.095-.664.418-.702 1.082-.037.607-.037 1.14-.037 4.024v.834z"/><path d="M197.514 49.02c0-2.884 0-3.416-.038-4.023-.038-.646-.19-.948-.816-1.082-.152-.038-.475-.057-.74-.057-.21 0-.322-.038-.322-.17s.133-.172.417-.172c.513 0 1.063.02 1.538.02.493.02.93.038 1.195.038.607 0 4.385 0 4.746-.02.36-.038.664-.076.816-.113.094-.02.208-.075.303-.075.096 0 .114.076.114.17 0 .133-.095.36-.15 1.234-.02.188-.06 1.024-.097 1.252-.02.095-.057.208-.19.208s-.17-.094-.17-.266c0-.133-.02-.455-.114-.683-.133-.34-.322-.568-1.27-.683-.323-.038-2.317-.076-2.696-.076-.095 0-.133.06-.133.19v4.804c0 .133.02.208.133.208.418 0 2.6 0 3.037-.038.455-.037.74-.095.91-.285.134-.152.21-.247.305-.247.076 0 .133.038.133.152 0 .113-.076.417-.152 1.385-.02.38-.075 1.14-.075 1.272 0 .15 0 .36-.17.36-.134 0-.172-.076-.172-.17-.02-.19-.02-.438-.076-.684-.095-.38-.36-.665-1.063-.74-.36-.04-2.24-.058-2.695-.058-.094 0-.113.076-.113.19v1.5c0 .645-.02 2.39 0 2.94.037 1.31.34 1.595 2.276 1.595.494 0 1.29 0 1.785-.228.494-.228.722-.626.855-1.404.038-.21.076-.284.21-.284.15 0 .15.15.15.34 0 .437-.15 1.728-.246 2.107-.134.493-.305.493-1.026.493-1.423 0-2.468-.038-3.284-.057-.816-.038-1.404-.057-1.974-.057-.21 0-.626 0-1.082.02-.437 0-.93.037-1.31.037-.247 0-.38-.057-.38-.19 0-.095.076-.15.304-.15.285 0 .513-.04.684-.077.38-.076.475-.493.55-1.044.096-.797.096-2.297.096-4.043v-3.34zM208.372 49.02c0-2.884 0-3.416-.038-4.023-.038-.646-.19-.948-.816-1.082-.15-.038-.475-.057-.74-.057-.21 0-.323-.038-.323-.17s.133-.172.418-.172c1.006 0 2.202.058 2.6.058.647 0 2.09-.058 2.678-.058 1.196 0 2.468.114 3.493.816.53.36 1.29 1.33 1.29 2.6 0 1.405-.587 2.696-2.505 4.253 1.69 2.126 3 3.815 4.12 4.992 1.062 1.1 1.84 1.234 2.125 1.29.21.038.38.058.532.058.15 0 .228.057.228.152 0 .15-.134.19-.36.19h-1.804c-1.064 0-1.54-.097-2.032-.362-.816-.436-1.538-1.328-2.6-2.79-.76-1.044-1.634-2.335-1.88-2.62-.096-.113-.21-.132-.342-.132l-1.65-.038c-.096 0-.152.038-.152.152v.266c0 1.765 0 3.265.094 4.062.058.55.172.968.74 1.044.285.037.703.075.93.075.152 0 .23.057.23.152 0 .133-.134.19-.38.19-1.102 0-2.506-.058-2.79-.058-.36 0-1.558.056-2.316.056-.247 0-.38-.057-.38-.19 0-.095.076-.15.304-.15.284 0 .513-.04.684-.077.38-.077.475-.494.55-1.045.096-.797.096-2.297.096-4.043v-3.34zm2.24 1.5c0 .21.038.285.17.343.4.133.97.19 1.444.19.76 0 1.006-.077 1.348-.323.57-.418 1.12-1.29 1.12-2.848 0-2.695-1.784-3.475-2.905-3.475-.476 0-.817.02-1.007.076-.133.038-.17.114-.17.266v5.77z"/><path d="M221.375 57.638c-.304-.133-.36-.227-.36-.645 0-1.045.076-2.184.095-2.486.02-.285.076-.494.228-.494.17 0 .19.17.19.322 0 .247.075.646.17.97.418 1.403 1.538 1.916 2.715 1.916 1.708 0 2.544-1.157 2.544-2.163 0-.93-.285-1.804-1.86-3.037l-.873-.683c-2.09-1.633-2.81-2.962-2.81-4.5 0-2.088 1.746-3.587 4.385-3.587 1.233 0 2.03.19 2.524.323.17.037.266.094.266.227 0 .248-.076.798-.076 2.278 0 .418-.057.57-.21.57-.132 0-.188-.114-.188-.343 0-.17-.096-.76-.494-1.252-.285-.36-.835-.93-2.068-.93-1.405 0-2.26.815-2.26 1.954 0 .873.438 1.538 2.013 2.733l.53.398c2.298 1.728 3.114 3.037 3.114 4.84 0 1.102-.417 2.412-1.783 3.304-.95.607-2.013.778-3.02.778-1.1.002-1.955-.13-2.772-.492z"/></g><g fill="#88837F"><path d="M56.823 31.203c-.547 0-1.04-.054-1.477-.16s-.823-.26-1.156-.46c-.333-.2-.617-.446-.852-.735s-.422-.616-.562-.98c-.115-.292-.197-.614-.246-.97-.05-.353-.074-.75-.074-1.187v-6.155h1.914v5.984c0 .738.088 1.316.266 1.733.198.464.487.798.867 1.004.38.206.828.31 1.344.31s.963-.104 1.344-.31c.38-.206.67-.54.868-1.004.177-.417.266-.995.266-1.734v-5.985h1.914v6.156c0 .44-.025.834-.074 1.19-.05.353-.132.676-.246.968-.14.364-.33.69-.566.98-.237.29-.526.534-.867.734-.34.2-.733.354-1.176.46-.445.108-.94.16-1.487.16zM66.578 31.008V20.555h1.914v10.453h-1.914zM78.145 31.008H76.23v-8.852h-3.374v-1.602h8.656v1.602h-3.367v8.852zM89.752 28.453c.192-.567.332-.973.418-1.215s.267-.738.543-1.488l1.938-5.195h2.024l-4.086 10.453h-1.72l-4.085-10.453h2.04l1.937 5.195c.276.75.457 1.246.543 1.488s.225.647.418 1.215h.032zM104.085 28.344h-3.937l-1.024 2.664h-2.04l4.15-10.453h1.75l4.147 10.453h-2.022l-1.023-2.664zM102.1 23.07c-.364 1.095-.69 2.008-.977 2.742l-.357.93h2.702l-.357-.93c-.282-.74-.608-1.654-.977-2.74h-.032zM117.48 28.344h-3.937l-1.024 2.664h-2.04l4.148-10.453h1.75l4.148 10.453h-2.023l-1.023-2.664zm-1.984-5.273c-.365 1.095-.69 2.008-.978 2.742l-.357.93h2.703l-.357-.93c-.283-.74-.61-1.654-.978-2.74h-.032zM132.626 23.696c0 .73-.202 1.348-.605 1.855-.403.51-1.026.885-1.87 1.13v.03l3.11 4.298h-2.298l-2.844-4.047h-1.312v4.048h-1.914V20.555h3.18c.525 0 1.016.03 1.47.09s.84.15 1.163.27c.614.234 1.088.582 1.422 1.043.332.46.5 1.04.5 1.738zm-4.875 1.664c.44 0 .81-.02 1.114-.06s.56-.097.77-.175c.385-.146.652-.345.8-.598s.224-.543.224-.87c0-.282-.06-.53-.176-.747s-.316-.387-.598-.512c-.183-.083-.412-.145-.688-.184-.276-.04-.617-.06-1.023-.06h-1.367v3.204h.945zM142.093 31.008h-1.914v-8.852h-3.376v-1.602h8.656v1.602h-3.367v8.852zM157.417 20.555v1.04l-5.594 7.81h5.664v1.603h-8.21v-1.03l5.6-7.82h-5.46v-1.603h8zM172.04 25.78c0 .798-.113 1.528-.34 2.192s-.56 1.235-.992 1.715c-.436.48-.97.852-1.602 1.117s-1.354.398-2.16.398c-.81 0-1.527-.133-2.16-.398s-1.168-.638-1.602-1.117c-.436-.48-.766-1.05-.992-1.715s-.34-1.395-.34-2.19.113-1.528.34-2.192.557-1.235.992-1.715c.434-.48.97-.852 1.602-1.117s1.352-.398 2.16-.398c.807 0 1.527.133 2.16.398s1.166.638 1.602 1.117c.434.48.766 1.05.992 1.715s.34 1.395.34 2.19zm-1.976 0c0-.635-.078-1.19-.234-1.667s-.373-.874-.648-1.19c-.277-.318-.605-.556-.984-.712-.38-.155-.797-.233-1.25-.233s-.87.078-1.25.234c-.38.157-.71.395-.984.712-.277.317-.492.715-.648 1.19s-.234 1.033-.234 1.67.078 1.19.234 1.667.37.87.648 1.187c.275.315.604.552.984.71.38.16.797.24 1.25.24s.87-.08 1.25-.24c.38-.158.707-.395.984-.71.275-.315.492-.71.648-1.188s.234-1.033.234-1.67zM184.685 23.696c0 .73-.2 1.348-.605 1.855-.403.51-1.027.885-1.87 1.13v.03l3.108 4.298h-2.297l-2.843-4.047h-1.312v4.048h-1.914V20.555h3.18c.527 0 1.017.03 1.47.09s.842.15 1.164.27c.615.234 1.09.582 1.422 1.043.333.46.5 1.04.5 1.738zm-4.875 1.664c.438 0 .81-.02 1.113-.06s.562-.097.77-.175c.386-.146.652-.345.8-.598s.224-.543.224-.87c0-.282-.06-.53-.176-.747s-.315-.387-.597-.512c-.182-.083-.41-.145-.688-.184-.275-.04-.617-.06-1.023-.06h-1.367v3.204h.945zM196.378 27.016h-2.344v-1.602h4.258v5.273c-.156.058-.355.117-.598.18s-.514.118-.812.168c-.3.05-.608.09-.926.12-.318.032-.633.048-.945.048-.937 0-1.756-.126-2.456-.38-.7-.252-1.284-.607-1.75-1.065-.467-.458-.815-1.004-1.047-1.637-.232-.632-.348-1.33-.348-2.097 0-.542.06-1.06.183-1.55.122-.493.302-.95.54-1.368.235-.42.523-.798.862-1.137.338-.34.725-.628 1.16-.867.435-.238.91-.422 1.43-.55.518-.128 1.074-.19 1.668-.19.525 0 1.025.037 1.5.112.474.075.86.168 1.164.277v1.624c-.406-.13-.816-.23-1.23-.297s-.832-.102-1.254-.102c-.568 0-1.1.085-1.594.254-.496.168-.925.418-1.286.75-.362.33-.647.737-.855 1.222-.21.484-.313 1.044-.313 1.68.005 1.234.328 2.16.97 2.777s1.548.925 2.726.925c.22 0 .445-.012.68-.035s.44-.054.617-.09v-2.444z"/></g></svg>